HIERARCHY
ROOT Hips
{
	OFFSET	0.00	0.00	0.00
	CHANNELS 6 Xposition Yposition Zposition Zrotation Xrotation Yrotation
	JOINT LeftUpperLeg
	{
		OFFSET	 0.100000	-0.066564	-0.000554
		CHANNELS 3 Zrotation Xrotation Yrotation
		JOINT LeftLowerLeg
		{
			OFFSET	 0.002447	-0.463436	-0.005172
			CHANNELS 3 Zrotation Xrotation Yrotation
			JOINT LeftFoot
			{
				OFFSET	-0.002447	-0.420480	-0.020576
				CHANNELS 3 Zrotation Xrotation Yrotation
				JOINT LeftToes
				{
					OFFSET	 0.003734	-0.104922	 0.126407
					CHANNELS 3 Zrotation Xrotation Yrotation
					End Site
					{
						OFFSET	 0.000000	 0.000000	 0.059955
					}
				}
			}
		}
	}
	JOINT RightUpperLeg
	{
		OFFSET	-0.100000	-0.066564	-0.000554
		CHANNELS 3 Zrotation Xrotation Yrotation
		JOINT RightLowerLeg
		{
			OFFSET	-0.002447	-0.463436	-0.005146
			CHANNELS 3 Zrotation Xrotation Yrotation
			JOINT RightFoot
			{
				OFFSET	 0.002447	-0.420479	-0.020602
				CHANNELS 3 Zrotation Xrotation Yrotation
				JOINT RightToes
				{
					OFFSET	-0.003734	-0.104922	 0.126407
					CHANNELS 3 Zrotation Xrotation Yrotation
					End Site
					{
						OFFSET	-0.000000	 0.000000	 0.059955
					}
				}
			}
		}
	}
	JOINT Spine
	{
		OFFSET	 0.000000	 0.099235	-0.012273
		CHANNELS 3 Zrotation Xrotation Yrotation
		JOINT Chest
		{
			OFFSET	-0.000001	 0.116455	-0.014223
			CHANNELS 3 Zrotation Xrotation Yrotation
			JOINT UpperChest
			{
				OFFSET	 0.000001	 0.133602	-0.016265
				CHANNELS 3 Zrotation Xrotation Yrotation
				JOINT LeftShoulder
				{
					OFFSET	 0.061058	 0.091105	 0.007056
					CHANNELS 3 Zrotation Xrotation Yrotation
					JOINT LeftUpperArm
					{
						OFFSET	 0.133942	-0.002659	-0.026009
						CHANNELS 3 Zrotation Xrotation Yrotation
						JOINT LeftLowerArm
						{
							OFFSET	 0.274047	 0.000000	 0.000000
							CHANNELS 3 Zrotation Xrotation Yrotation
							JOINT LeftHand
							{
								OFFSET	 0.276145	 0.000000	 0.000000
								CHANNELS 3 Zrotation Xrotation Yrotation
								End Site
								{
									OFFSET	 0.165687	 0.000000	 0.000000
								}
							}
						}
					}
				}
				JOINT Neck
				{
					OFFSET	 0.000000	 0.150325	 0.007929
					CHANNELS 3 Zrotation Xrotation Yrotation
					JOINT Head
					{
						OFFSET	 0.000000	 0.103218	 0.031424
						CHANNELS 3 Zrotation Xrotation Yrotation
						End Site
						{
							OFFSET	 0.000000	 0.061931	 0.018855
						}
					}
				}
				JOINT RightShoulder
				{
					OFFSET	-0.061057	 0.091105	 0.007056
					CHANNELS 3 Zrotation Xrotation Yrotation
					JOINT RightUpperArm
					{
						OFFSET	-0.133943	-0.002660	-0.026009
						CHANNELS 3 Zrotation Xrotation Yrotation
						JOINT RightLowerArm
						{
							OFFSET	-0.274047	 0.000000	 0.000000
							CHANNELS 3 Zrotation Xrotation Yrotation
							JOINT RightHand
							{
								OFFSET	-0.276145	 0.000000	 0.000000
								CHANNELS 3 Zrotation Xrotation Yrotation
								End Site
								{
									OFFSET	-0.165687	 0.000000	 0.000000
								}
							}
						}
					}
				}
			}
		}
	}
}
MOTION
Frames:    13
Frame Time: 0.03333334
-0.350460	 1.046600	-0.037400	 2.545828	 7.093746	 6.021241	 5.061784	-14.764350	 7.295070	-0.015305	 6.082209	-0.002820	-1.673475	 2.485288	 15.948040	-0.000491	 1.902682	 0.000377	-3.615457	-4.829340	-20.153210	-0.010760	 15.393560	 0.013224	 3.027214	-17.101490	-9.397596	-0.000604	 0.361600	 0.307613	 2.672363	-0.325397	-2.475894	-0.000000	 0.000000	 0.000000	 5.340174	-0.766962	-4.943570	 9.895019	 4.849276	-5.225240	-86.323140	-38.929950	-42.980320	-37.186930	 54.764020	-105.478400	 44.729260	 4.867933	-9.237984	 1.313931	 17.068910	-1.311146	 1.333369	 17.071810	-1.388618	-5.292988	 5.238764	-18.593650	 77.471830	-5.423895	 39.408880	 17.265400	 54.439100	 128.964000	-34.510760	-13.156320	 24.897950
-0.336990	 1.049680	-0.044560	 3.165042	 6.320291	 4.888796	 6.168097	-12.300970	 15.681840	-0.048968	 12.561700	-0.004526	 0.888703	 0.001674	 13.190190	-0.000462	 0.485443	 1.513774	-4.401474	-3.331864	-18.084280	 0.029012	 12.726160	 0.005986	 2.177404	-15.221510	-10.261020	 0.000124	 0.355816	 0.108687	 2.529320	-0.442053	-2.545079	-0.000000	 0.000000	 0.000000	 5.046823	-0.997656	-5.077160	 8.948822	 4.944872	-5.352804	-85.629100	-38.767820	-43.042840	-37.258400	 55.355640	-105.224600	 45.608670	 4.684342	-10.419330	 1.318438	 16.465620	-0.512554	 1.364966	 16.618920	-0.499433	-5.272585	 5.982347	-18.433010	 74.839520	-2.073872	 41.958090	 15.799210	 53.776750	 129.484900	-37.345420	-10.319140	 26.959900
-0.336990	 1.049680	-0.044560	 3.165042	 6.320291	 4.888796	 6.168097	-12.300970	 15.681840	-0.048968	 12.561700	-0.004526	 0.888703	 0.001674	 13.190190	-0.000462	 0.485443	 1.513774	-4.401474	-3.331864	-18.084280	 0.029012	 12.726160	 0.005986	 2.177404	-15.221510	-10.261020	 0.000124	 0.355816	 0.108687	 2.529320	-0.442053	-2.545079	-0.000000	 0.000000	 0.000000	 5.046823	-0.997656	-5.077160	 8.948822	 4.944872	-5.352804	-85.629100	-38.767820	-43.042840	-37.258400	 55.355640	-105.224600	 45.608670	 4.684342	-10.419330	 1.318438	 16.465620	-0.512554	 1.364966	 16.618920	-0.499433	-5.272585	 5.982347	-18.433010	 74.839520	-2.073872	 41.958090	 15.799210	 53.776750	 129.484900	-37.345420	-10.319140	 26.959900
-0.326600	 1.050980	-0.042910	 3.607877	 6.464027	 4.068907	 6.169660	-13.105440	 20.824380	 0.119448	 15.422140	-0.027720	 1.721205	-0.565272	 8.931809	-0.000412	 0.506908	 1.566721	-5.268184	-2.733911	-17.527100	-0.024335	 11.299990	 0.010539	 3.038853	-14.380860	-9.843438	 0.000359	 0.356046	 0.126464	 2.392555	-0.638120	-2.411256	-0.000000	 0.000000	 0.000000	 4.764557	-1.377016	-4.801713	 8.265302	 4.773193	-4.814704	-85.575390	-38.256780	-43.285590	-36.662160	 55.209060	-105.487900	 46.424740	 5.052646	-11.214520	 0.913948	 16.400130	-0.381177	 1.247721	 16.797930	-0.683079	-5.441057	 6.151264	-18.111020	 74.444390	-1.834246	 43.048600	 15.986950	 52.938500	 128.871800	-38.320010	-9.124930	 29.496090
-0.317670	 1.052290	-0.041060	 3.485092	 6.404023	 3.705137	 6.412300	-13.938930	 21.548630	 0.042433	 17.777090	-0.017381	 1.495982	-0.831487	 8.461179	 0.000148	-0.123305	 0.550957	-5.293541	-1.322689	-16.893690	-0.012153	 8.630618	 0.007139	 3.682826	-13.044130	-10.003780	-0.000449	 0.356927	 0.143598	 2.414075	-0.672927	-2.385313	-0.000000	 0.000000	 0.000000	 4.807391	-1.445701	-4.749159	 8.545640	 5.166292	-5.174288	-85.568510	-38.197730	-43.480740	-36.714030	 54.970910	-105.401800	 46.367290	 5.178433	-11.582370	 1.003857	 16.612030	-0.798927	 0.970614	 16.675430	-0.853938	-4.984544	 6.660083	-18.433580	 74.050390	-1.570529	 43.701450	 15.424770	 52.772840	 129.116600	-39.457490	-9.004375	 30.101000
-0.307600	 1.053510	-0.039020	 3.180669	 6.188722	 3.375990	 6.595076	-14.643190	 21.353380	 0.138725	 20.204570	-0.034132	 1.422503	-1.264727	 8.143665	 0.000180	-1.619982	 0.696474	-4.921150	 1.201370	-15.890010	-0.004821	 3.967503	 0.002040	 4.003789	-10.677050	-10.620330	 0.000106	 0.356480	 0.111164	 2.568042	-0.631517	-2.468893	-0.000000	 0.000000	 0.000000	 5.119415	-1.375492	-4.915650	 8.771887	 5.394637	-5.334315	-85.463320	-38.219620	-43.384120	-36.852250	 54.841870	-105.357300	 46.631420	 5.226681	-12.043420	 0.961757	 16.582080	-1.002640	 0.603590	 16.486300	-0.817845	-4.787523	 6.852445	-18.530330	 73.236370	-1.096593	 44.216610	 14.007080	 53.121020	 129.080900	-41.868520	-8.685813	 31.908750
-0.293710	 1.054400	-0.038390	 2.836865	 6.005013	 2.287066	 6.265435	-14.806530	 18.256130	 0.176085	 21.593940	-0.041303	 0.024324	-1.030638	 9.096080	-0.000339	-5.985562	 1.102278	-4.962528	 3.122466	-13.526290	 0.000255	 0.075018	 0.000486	 4.175819	-8.478632	-11.786430	 0.000315	 0.355726	 0.038669	 2.692923	-0.610494	-2.344755	-0.000000	 0.000000	 0.000000	 5.370714	-1.335582	-4.666061	 8.487631	 5.703460	-4.905720	-85.382920	-38.664440	-43.513680	-37.599530	 55.297730	-104.623500	 46.631570	 5.370944	-12.293950	 0.538936	 16.505340	-0.745618	 0.362528	 16.442310	-0.998317	-5.100906	 6.643537	-17.848180	 72.400860	-0.872885	 44.182520	 11.635180	 51.467260	 130.872400	-44.588020	-5.934922	 33.783710
-0.284120	 1.054510	-0.039760	 1.988907	 5.813724	 1.714516	 5.904555	-13.979990	 12.819280	-0.361791	 19.916960	 0.053532	-2.069666	-3.784164	 14.307590	-0.000867	-1.765563	 0.440309	-4.746239	 3.088413	-12.452980	 0.000091	 0.079925	 0.000115	 4.564221	-8.181630	-12.109200	 0.000619	 0.355667	 0.019323	 2.964864	-0.606786	-2.319117	-0.000000	 0.000000	 0.000000	 5.917767	-1.335912	-4.615057	 8.642132	 5.711197	-5.140997	-85.165740	-38.775720	-43.432960	-37.785210	 55.251820	-104.293600	 46.352130	 5.333371	-12.054620	 1.083367	 16.530180	-1.331338	 0.551275	 16.484840	-1.370883	-4.852600	 6.370543	-17.831960	 72.074790	-1.460672	 43.910540	 10.703160	 50.397930	 131.757700	-44.548060	-4.744141	 35.203270
-0.274900	 1.054340	-0.042710	 0.916045	 5.472720	 1.237728	 5.958864	-12.337000	 11.569250	-0.180045	 17.073890	 0.016742	-1.993065	-5.440538	 15.976000	-0.001035	 0.392230	 0.679034	-4.297864	 3.128844	-11.769990	-0.000581	 0.079134	-0.000476	 5.098985	-7.754208	-12.101410	-0.000100	 0.356295	 0.018392	 3.287385	-0.505974	-2.266299	-0.000000	 0.000000	 0.000000	 6.569077	-1.142948	-4.507689	 8.682250	 5.740615	-5.359957	-85.212700	-38.992050	-43.564520	-38.236970	 55.248520	-103.665300	 45.666480	 4.951322	-11.315430	 1.198099	 17.149580	-1.672138	 0.591067	 16.905610	-1.765304	-4.556472	 6.272660	-17.842680	 71.944390	-2.565374	 43.778360	 13.318840	 49.988170	 129.400400	-42.254220	-4.829634	 35.834590
-0.262820	 1.053780	-0.049150	-0.474323	 5.095253	 0.889440	 6.511669	-11.076000	 13.352430	 0.082796	 15.108600	-0.022403	-0.539517	-6.828841	 14.868910	-0.000369	 0.380700	 0.689369	-3.721301	 3.001947	-11.731110	-0.000239	 0.088931	 0.000515	 5.885434	-6.954910	-11.578400	 0.000230	 0.355506	 0.020098	 3.600234	-0.303108	-2.298919	-0.000000	 0.000000	 0.000000	 7.201702	-0.752488	-4.584845	 8.987247	 5.603215	-5.931765	-85.304320	-39.258800	-43.674660	-38.056240	 54.767930	-103.781000	 44.394250	 4.071097	-9.955587	 1.360247	 17.779390	-2.131789	 0.730368	 17.341210	-2.031697	-4.034095	 6.381536	-18.387330	 71.763560	-3.871061	 44.198490	 14.627940	 50.323470	 128.470900	-41.658620	-5.819680	 36.402940
-0.252870	 1.053390	-0.054430	-0.991610	 4.883636	 0.767199	 6.503550	-11.025720	 13.172700	 0.011604	 15.176720	-0.013312	-0.065762	-6.907571	 14.737070	 0.000845	 0.380028	 0.666602	-3.839252	 2.846167	-12.136550	-0.000549	 0.079987	-0.000280	 6.370765	-6.247828	-11.031680	 0.000159	 0.356276	-0.000893	 3.535480	-0.200692	-2.416228	-0.000000	 0.000000	 0.000000	 7.076502	-0.550875	-4.828492	 8.360377	 5.354218	-5.939276	-84.715160	-39.005630	-43.443700	-38.301300	 54.649880	-103.623200	 43.744950	 3.660645	-9.482937	 0.964680	 17.932200	-2.415196	 1.027475	 17.745370	-2.157212	-4.199394	 6.523540	-18.580200	 71.591720	-4.125496	 44.198570	 15.432960	 50.325620	 129.091600	-41.544070	-5.069757	 36.001200
-0.242100	 1.052890	-0.060250	-0.992530	 5.453252	 0.148229	 6.064619	-11.929120	 13.389780	-0.051237	 15.728740	-0.004610	-0.291387	-7.675640	 14.834030	 0.000542	 0.370264	 0.511016	-4.532847	 1.808254	-12.212290	-0.000213	 0.080864	-0.000520	 6.359622	-5.580448	-10.296540	-0.000859	 0.355970	-0.000847	 3.310506	-0.462637	-2.470608	-0.000000	 0.000000	 0.000000	 6.610851	-1.067900	-4.922456	 8.299102	 4.932064	-5.400426	-84.407260	-39.079730	-43.057650	-38.076860	 54.718850	-103.672700	 46.237420	 4.616315	-9.874297	 0.869765	 17.750740	-2.260056	 1.262925	 18.306010	-2.178372	-4.397334	 6.172147	-18.193830	 71.393420	-3.681127	 43.587250	 15.933030	 50.151030	 129.581400	-41.431690	-4.217400	 35.663830
-0.242100	 1.052890	-0.060250	-0.992530	 5.453252	 0.148229	 6.064619	-11.929120	 13.389780	-0.051237	 15.728740	-0.004610	-0.291387	-7.675640	 14.834030	 0.000542	 0.370264	 0.511016	-4.532847	 1.808254	-12.212290	-0.000213	 0.080864	-0.000520	 6.359622	-5.580448	-10.296540	-0.000859	 0.355970	-0.000847	 3.310506	-0.462637	-2.470608	-0.000000	 0.000000	 0.000000	 6.610851	-1.067900	-4.922456	 8.299102	 4.932064	-5.400426	-84.407260	-39.079730	-43.057650	-38.076860	 54.718850	-103.672700	 46.237420	 4.616315	-9.874297	 0.869765	 17.750740	-2.260056	 1.262925	 18.306010	-2.178372	-4.397334	 6.172147	-18.193830	 71.393420	-3.681127	 43.587250	 15.933030	 50.151030	 129.581400	-41.431690	-4.217400	 35.663830
